<svg width="106" height="20" viewBox="0 0 106 20" fill="none" xmlns="http://www.w3.org/2000/svg">
<path d="M6.8 19.325C5.83333 19.325 4.90417 19.175 4.0125 18.875C3.12917 18.5667 2.35417 18.1292 1.6875 17.5625C1.02083 16.9875 0.541667 16.3 0.25 15.5L3.1125 14.45C3.22917 14.7833 3.46667 15.0875 3.825 15.3625C4.18333 15.6375 4.62083 15.8583 5.1375 16.025C5.65417 16.1917 6.20833 16.275 6.8 16.275C7.40833 16.275 7.975 16.1833 8.5 16C9.03333 15.8083 9.4625 15.5458 9.7875 15.2125C10.1125 14.8708 10.275 14.475 10.275 14.025C10.275 13.5667 10.1042 13.1917 9.7625 12.9C9.42083 12.6 8.98333 12.3625 8.45 12.1875C7.91667 12.0125 7.36667 11.8792 6.8 11.7875C5.55833 11.5958 4.44583 11.3 3.4625 10.9C2.47917 10.5 1.7 9.94583 1.125 9.2375C0.558333 8.52917 0.275 7.6125 0.275 6.4875C0.275 5.42917 0.579167 4.50417 1.1875 3.7125C1.79583 2.92083 2.59583 2.30417 3.5875 1.8625C4.57917 1.42083 5.65 1.2 6.8 1.2C7.75833 1.2 8.68333 1.35 9.575 1.65C10.4667 1.95 11.2458 2.3875 11.9125 2.9625C12.5875 3.5375 13.0708 4.22917 13.3625 5.0375L10.4875 6.075C10.3708 5.74167 10.1333 5.4375 9.775 5.1625C9.41667 4.8875 8.97917 4.67083 8.4625 4.5125C7.94583 4.34583 7.39167 4.2625 6.8 4.2625C6.20833 4.25417 5.64583 4.35 5.1125 4.55C4.5875 4.74167 4.15833 5.00417 3.825 5.3375C3.49167 5.67083 3.325 6.05417 3.325 6.4875C3.325 7.04583 3.47917 7.46667 3.7875 7.75C4.10417 8.03333 4.525 8.24167 5.05 8.375C5.575 8.5 6.15833 8.61667 6.8 8.725C7.96667 8.90833 9.04583 9.21667 10.0375 9.65C11.0292 10.0833 11.825 10.6625 12.425 11.3875C13.025 12.1042 13.325 12.9833 13.325 14.025C13.325 15.0833 13.025 16.0125 12.425 16.8125C11.825 17.6042 11.0292 18.2208 10.0375 18.6625C9.04583 19.1042 7.96667 19.325 6.8 19.325ZM15.8076 19V6.5H18.8576V7.6125C19.2826 7.1625 19.791 6.80833 20.3826 6.55C20.9743 6.28333 21.6118 6.15 22.2951 6.15C23.1618 6.15 23.9576 6.35417 24.6826 6.7625C25.416 7.17083 25.9993 7.71667 26.4326 8.4C26.8743 7.71667 27.4576 7.17083 28.1826 6.7625C28.9076 6.35417 29.7035 6.15 30.5701 6.15C31.4868 6.15 32.316 6.375 33.0576 6.825C33.8076 7.26667 34.4035 7.8625 34.8451 8.6125C35.2951 9.35417 35.5201 10.1833 35.5201 11.1V19H32.4701V11.9125C32.4701 11.4292 32.3493 10.9875 32.1076 10.5875C31.8743 10.1792 31.5576 9.85417 31.1576 9.6125C30.766 9.3625 30.3243 9.2375 29.8326 9.2375C29.341 9.2375 28.8951 9.35833 28.4951 9.6C28.1035 9.83333 27.7868 10.15 27.5451 10.55C27.3035 10.95 27.1826 11.4042 27.1826 11.9125V19H24.1326V11.9125C24.1326 11.4042 24.016 10.95 23.7826 10.55C23.5493 10.15 23.2326 9.83333 22.8326 9.6C22.4326 9.35833 21.9868 9.2375 21.4951 9.2375C21.0118 9.2375 20.5701 9.3625 20.1701 9.6125C19.7701 9.85417 19.4493 10.1792 19.2076 10.5875C18.9743 10.9875 18.8576 11.4292 18.8576 11.9125V19H15.8076ZM47.2053 6.5H50.2553V19H47.2053L47.0678 17.45C46.7261 18.0083 46.2719 18.4625 45.7053 18.8125C45.1469 19.1542 44.4844 19.325 43.7178 19.325C42.7928 19.325 41.9261 19.15 41.1178 18.8C40.3094 18.45 39.5969 17.9667 38.9803 17.35C38.3719 16.7333 37.8928 16.0208 37.5428 15.2125C37.2011 14.4042 37.0303 13.5375 37.0303 12.6125C37.0303 11.7208 37.1928 10.8833 37.5178 10.1C37.8511 9.31667 38.3136 8.62917 38.9053 8.0375C39.4969 7.44583 40.1803 6.98333 40.9553 6.65C41.7303 6.31667 42.5636 6.15 43.4553 6.15C44.2803 6.15 45.0178 6.33333 45.6678 6.7C46.3261 7.06667 46.8844 7.53333 47.3428 8.1L47.2053 6.5ZM43.6428 16.3875C44.2928 16.3875 44.8678 16.225 45.3678 15.9C45.8678 15.575 46.2594 15.1375 46.5428 14.5875C46.8261 14.0292 46.9678 13.4167 46.9678 12.75C46.9678 12.075 46.8261 11.4625 46.5428 10.9125C46.2594 10.3542 45.8636 9.9125 45.3553 9.5875C44.8553 9.2625 44.2844 9.1 43.6428 9.1C43.0011 9.1 42.4136 9.26667 41.8803 9.6C41.3553 9.925 40.9344 10.3625 40.6178 10.9125C40.3094 11.4625 40.1553 12.075 40.1553 12.75C40.1553 13.425 40.3136 14.0375 40.6303 14.5875C40.9469 15.1375 41.3678 15.575 41.8928 15.9C42.4261 16.225 43.0094 16.3875 43.6428 16.3875ZM52.8193 19V0.249999H55.8693V19H52.8193ZM58.874 19V0.249999H61.924V19H58.874ZM64.9287 19V1.5H75.9037V4.55H67.9787V8.1H74.2662V11.15H67.9787V15.95H75.9037V19H64.9287ZM78.7227 19V1.5H85.4352C86.3852 1.5 87.2435 1.7375 88.0102 2.2125C88.7768 2.6875 89.3852 3.325 89.8352 4.125C90.2852 4.91667 90.5102 5.79583 90.5102 6.7625C90.5102 7.55417 90.3643 8.28333 90.0727 8.95C89.7893 9.60833 89.3893 10.1792 88.8727 10.6625C88.3643 11.1458 87.7768 11.5125 87.1102 11.7625L91.2977 19H87.7852L83.7352 12.0375H81.7727V19H78.7227ZM81.7727 8.9875H85.0852C85.5185 8.9875 85.9143 8.87917 86.2727 8.6625C86.631 8.44583 86.9185 8.15417 87.1352 7.7875C87.3518 7.42083 87.4602 7.0125 87.4602 6.5625C87.4602 6.10417 87.3518 5.69167 87.1352 5.325C86.9185 4.95833 86.631 4.66667 86.2727 4.45C85.9143 4.23333 85.5185 4.125 85.0852 4.125H81.7727V8.9875ZM93.6885 19V1.5H99.9385C100.888 1.5 101.747 1.7375 102.513 2.2125C103.288 2.6875 103.901 3.325 104.351 4.125C104.801 4.925 105.026 5.80417 105.026 6.7625C105.026 7.74583 104.793 8.6375 104.326 9.4375C103.868 10.2292 103.251 10.8625 102.476 11.3375C101.701 11.8042 100.855 12.0375 99.9385 12.0375H96.7385V19H93.6885ZM96.7385 8.9875H99.6135C100.047 8.9875 100.443 8.87917 100.801 8.6625C101.159 8.44583 101.443 8.15417 101.651 7.7875C101.868 7.42083 101.976 7.0125 101.976 6.5625C101.976 6.10417 101.868 5.69167 101.651 5.325C101.443 4.95833 101.159 4.66667 100.801 4.45C100.443 4.23333 100.047 4.125 99.6135 4.125H96.7385V8.9875Z" fill="#00325E"/>
</svg>
